<svg xmlns="http://www.w3.org/2000/svg" width="32.143" height="30" viewBox="0 0 32.143 30"><path d="M2970.98,5160.672a5.773,5.773,0,0,0-4.436,2.143H2964.3a3.841,3.841,0,0,1-2.311-.678,2.294,2.294,0,0,1-.937-1.984q0-5.91,2.076-5.909a3.186,3.186,0,0,1,.728.351,11.033,11.033,0,0,0,1.632.712,5.883,5.883,0,0,0,1.992.36,6.75,6.75,0,0,0,2.227-.385,8.32,8.32,0,0,0-.084,1.1A7.37,7.37,0,0,0,2970.98,5160.672Zm17.93,10.664a4.172,4.172,0,0,1-1.222,3.173,4.516,4.516,0,0,1-3.248,1.163h-14.632a4.513,4.513,0,0,1-3.247-1.163,4.172,4.172,0,0,1-1.222-3.173q0-.886.058-1.732a16.825,16.825,0,0,1,.235-1.825,14.265,14.265,0,0,1,.443-1.817,8.635,8.635,0,0,1,.72-1.632,5.864,5.864,0,0,1,1.038-1.356,4.382,4.382,0,0,1,1.431-.9,5.032,5.032,0,0,1,1.867-.334,1.964,1.964,0,0,1,.72.36c.368.24.776.507,1.222.8a7.773,7.773,0,0,0,8.1,0c.446-.3.853-.563,1.222-.8a1.964,1.964,0,0,1,.72-.36,5.025,5.025,0,0,1,1.866.334,4.375,4.375,0,0,1,1.432.9,5.925,5.925,0,0,1,1.038,1.356,8.584,8.584,0,0,1,.719,1.632,14.1,14.1,0,0,1,.444,1.817,17.118,17.118,0,0,1,.234,1.825Q2988.911,5170.448,2988.91,5171.336Zm-17.143-21.378a4.287,4.287,0,1,1-1.255-3.03A4.127,4.127,0,0,1,2971.767,5149.958Zm11.786,6.428a6.429,6.429,0,1,1-1.883-4.545A6.2,6.2,0,0,1,2983.553,5156.386Zm9.643,3.767a2.3,2.3,0,0,1-.938,1.984,3.84,3.84,0,0,1-2.31.678h-2.243a5.775,5.775,0,0,0-4.437-2.143,7.37,7.37,0,0,0,1.356-4.286,8.473,8.473,0,0,0-.083-1.1,6.74,6.74,0,0,0,2.226.385,5.875,5.875,0,0,0,1.992-.36,11.016,11.016,0,0,0,1.633-.712,3.166,3.166,0,0,1,.728-.351Q2993.2,5154.244,2993.2,5160.153Zm-2.143-10.195a4.289,4.289,0,1,1-1.256-3.03A4.129,4.129,0,0,1,2991.053,5149.958Z" transform="translate(-2961.053 -5145.672)" fill="#50992a"/></svg>