<svg xmlns="http://www.w3.org/2000/svg" width="50.993" height="30" viewBox="0 0 50.993 30">
  <g id="header-g8" transform="translate(-3253.977 -5147.453)">
    <path id="Caminho_563" data-name="Caminho 563" d="M3269.209,5177.453a16.5,16.5,0,0,1-6.157-1.116,14.4,14.4,0,0,1-4.817-3.117,14.118,14.118,0,0,1-3.136-4.737,15.594,15.594,0,0,1-1.123-5.95v-.08a14.833,14.833,0,0,1,9.115-13.818,15.435,15.435,0,0,1,6.073-1.182,20.875,20.875,0,0,1,3.482.266,16.974,16.974,0,0,1,2.942.758,13.954,13.954,0,0,1,2.578,1.248,18.635,18.635,0,0,1,2.29,1.672.848.848,0,0,1,.1,1.2l-3.787,4.563a.84.84,0,0,1-.583.306c-.024,0-.05,0-.074,0a.859.859,0,0,1-.556-.2,14.682,14.682,0,0,0-1.474-1.107,9.455,9.455,0,0,0-1.485-.786,8.8,8.8,0,0,0-1.652-.5,10.111,10.111,0,0,0-1.978-.178,6.162,6.162,0,0,0-2.7.6,7.523,7.523,0,0,0-2.245,1.653,7.729,7.729,0,0,0-1.507,2.432,8.237,8.237,0,0,0-.549,3v.078a8.864,8.864,0,0,0,.552,3.164,7.435,7.435,0,0,0,1.538,2.479,7.029,7.029,0,0,0,2.332,1.622,7.511,7.511,0,0,0,3,.577,8.857,8.857,0,0,0,4.8-1.251v-2.625H3269a.856.856,0,0,1-.854-.858v-5.2a.856.856,0,0,1,.854-.856h11.888a.859.859,0,0,1,.855.856v11.89a.849.849,0,0,1-.3.649,20.989,20.989,0,0,1-5.231,3.206,17.438,17.438,0,0,1-7,1.34" fill="#50992a"/>
    <path id="Caminho_564" data-name="Caminho 564" d="M3290.97,5154.2a3.242,3.242,0,0,0-2.3.722,2.1,2.1,0,0,0-.747,1.58v.079a2.261,2.261,0,0,0,.771,1.762,3.241,3.241,0,0,0,2.272.731,3.291,3.291,0,0,0,2.277-.718,2.175,2.175,0,0,0,.763-1.737v-.079a2.171,2.171,0,0,0-.748-1.6,3.163,3.163,0,0,0-2.292-.736m0,11.362a5.213,5.213,0,0,0-2.917.736,1.956,1.956,0,0,0-.941,1.763v.08a2.127,2.127,0,0,0,.923,1.731,4.641,4.641,0,0,0,2.934.806,4.716,4.716,0,0,0,2.939-.792,2.111,2.111,0,0,0,.919-1.746v-.08a1.954,1.954,0,0,0-.943-1.763,5.206,5.206,0,0,0-2.915-.736m0,11.787a15.857,15.857,0,0,1-4.441-.6,11.512,11.512,0,0,1-3.606-1.734,8.612,8.612,0,0,1-2.45-2.754,7.467,7.467,0,0,1-.906-3.656v-.078a7.607,7.607,0,0,1,1.277-4.544,8.262,8.262,0,0,1,2.381-2.154,8.584,8.584,0,0,1-1.635-1.781,7.172,7.172,0,0,1-1.086-4.091v-.079a7.334,7.334,0,0,1,.776-3.31,8,8,0,0,1,2.183-2.667,10.649,10.649,0,0,1,3.293-1.743,14.4,14.4,0,0,1,8.408,0,10.808,10.808,0,0,1,3.308,1.72,7.771,7.771,0,0,1,2.193,2.677,7.432,7.432,0,0,1,.773,3.324v.079a7.174,7.174,0,0,1-1.089,4.091,8.493,8.493,0,0,1-1.674,1.815,10.179,10.179,0,0,1,2.339,2.088,6.877,6.877,0,0,1,1.361,4.418v.079a7.921,7.921,0,0,1-.9,3.807,8.429,8.429,0,0,1-2.453,2.8,11.155,11.155,0,0,1-3.613,1.716,16.344,16.344,0,0,1-4.434.578" transform="translate(2.596 0.008)" fill="#50992a"/>
  </g>
</svg>
