<svg xmlns="http://www.w3.org/2000/svg" width="30" height="30" viewBox="0 0 30 30"><path d="M3592.125,5169.365a7.05,7.05,0,0,1-.213,1.5,8.517,8.517,0,0,1-.447,1.459,5.716,5.716,0,0,1-2.6,2.259,8.262,8.262,0,0,1-3.963,1.086,8.362,8.362,0,0,1-1.118-.074,9.287,9.287,0,0,1-1.225-.267q-.683-.192-1.012-.309t-1.183-.436c-.568-.214-.916-.341-1.044-.384a19.339,19.339,0,0,1-3.729-1.768,35.819,35.819,0,0,1-10.227-10.228,19.252,19.252,0,0,1-1.768-3.728q-.064-.192-.384-1.044t-.437-1.183q-.117-.33-.309-1.012a9.215,9.215,0,0,1-.266-1.225,8.172,8.172,0,0,1-.075-1.119,8.266,8.266,0,0,1,1.087-3.963,5.7,5.7,0,0,1,2.259-2.6,8.362,8.362,0,0,1,1.459-.448,7.066,7.066,0,0,1,1.5-.213,1.189,1.189,0,0,1,.448.064q.383.127,1.129,1.619.234.405.639,1.151t.746,1.353q.341.608.66,1.14c.043.057.167.234.373.533a5.865,5.865,0,0,1,.458.756,1.378,1.378,0,0,1,.149.607,1.769,1.769,0,0,1-.607,1.066,10.357,10.357,0,0,1-1.321,1.171,12.855,12.855,0,0,0-1.321,1.13,1.617,1.617,0,0,0-.607.98,1.437,1.437,0,0,0,.106.479,4.484,4.484,0,0,0,.182.437c.049.1.149.27.3.511s.231.377.245.405a21.123,21.123,0,0,0,8.714,8.715q.044.021.405.245c.242.149.412.248.512.3s.245.11.436.181a1.452,1.452,0,0,0,.48.107,1.627,1.627,0,0,0,.98-.608,12.682,12.682,0,0,0,1.129-1.321,10.431,10.431,0,0,1,1.172-1.321,1.77,1.77,0,0,1,1.065-.607,1.4,1.4,0,0,1,.608.149,6,6,0,0,1,.756.458c.3.206.476.331.533.373q.532.319,1.14.661t1.353.745q.746.405,1.15.64,1.491.746,1.619,1.129A1.186,1.186,0,0,1,3592.125,5169.365Z" transform="translate(-3562.125 -5145.672)" fill="#50992a"/></svg>