<svg xmlns="http://www.w3.org/2000/svg" width="30" height="30" viewBox="0 0 30 30"><path d="M3441.506,5153.256a2.051,2.051,0,0,1,.619,1.507,2.107,2.107,0,0,1-.619,1.523l-6.713,6.7,2.511,2.512-2.679,2.678a10.5,10.5,0,0,1-6.52,3.122,10.121,10.121,0,0,1-6.889-1.682l-6.06,6.06h-3.031v-3.03l6.061-6.06a10.13,10.13,0,0,1-1.683-6.889,10.507,10.507,0,0,1,3.122-6.521l2.679-2.678,2.511,2.511,6.7-6.713a2.105,2.105,0,0,1,1.523-.62,2.143,2.143,0,0,1,1.507,3.65l-6.7,6.713,3.918,3.917,6.713-6.7a2.106,2.106,0,0,1,1.523-.62A2.051,2.051,0,0,1,3441.506,5153.256Z" transform="translate(-3412.125 -5145.672)" fill="#50992a"/></svg>