<?xml version="1.0" encoding="utf-8"?>
<!-- Generator: Adobe Illustrator 17.0.0, SVG Export Plug-In . SVG Version: 6.00 Build 0)  -->
<!DOCTYPE svg PUBLIC "-//W3C//DTD SVG 1.1//EN" "http://www.w3.org/Graphics/SVG/1.1/DTD/svg11.dtd">
<svg version="1.1" id="Layer_1" xmlns="http://www.w3.org/2000/svg" xmlns:xlink="http://www.w3.org/1999/xlink" x="0px" y="0px"
	 width="20.866px" height="19.971px" viewBox="0 0 20.866 19.971" enable-background="new 0 0 20.866 19.971" xml:space="preserve">
<path id="icon-button-lancamentos" fill="#D7214F" d="M9.363,1.098L6.926,6.037L1.474,6.831C0.821,6.927,0.37,7.534,0.465,8.187
	c0.038,0.259,0.16,0.499,0.348,0.682l3.943,3.843L3.824,18.14c-0.111,0.649,0.325,1.266,0.974,1.376
	c0.258,0.044,0.524,0.002,0.756-0.12l4.878-2.562l4.878,2.562c0.583,0.306,1.306,0.081,1.612-0.502
	c0.122-0.232,0.164-0.496,0.12-0.754l-0.933-5.428l3.943-3.843c0.472-0.46,0.482-1.217,0.022-1.689
	c-0.183-0.188-0.422-0.31-0.682-0.348L13.94,6.037l-2.437-4.939c-0.292-0.592-1.009-0.833-1.6-0.54
	C9.669,0.674,9.48,0.864,9.363,1.098L9.363,1.098z"/>
</svg>
