<?xml version="1.0" encoding="utf-8"?>
<!-- Generator: Adobe Illustrator 17.0.0, SVG Export Plug-In . SVG Version: 6.00 Build 0)  -->
<!DOCTYPE svg PUBLIC "-//W3C//DTD SVG 1.1//EN" "http://www.w3.org/Graphics/SVG/1.1/DTD/svg11.dtd">
<svg version="1.1" id="Layer_1" xmlns="http://www.w3.org/2000/svg" xmlns:xlink="http://www.w3.org/1999/xlink" x="0px" y="0px"
	 width="28.393px" height="26.501px" viewBox="0 0 28.393 26.501" enable-background="new 0 0 28.393 26.501" xml:space="preserve">
<path id="icon-button-fornecedores" fill="#4821D7" d="M8.963,13.25c-1.469,0.013-2.856,0.683-3.779,1.825H3.274
	c-0.702,0.024-1.391-0.18-1.968-0.579c-0.536-0.391-0.837-1.027-0.798-1.69c0-3.356,0.589-5.034,1.767-5.034
	c0.219,0.072,0.428,0.174,0.621,0.299c0.446,0.24,0.911,0.442,1.391,0.606C4.83,8.879,5.404,8.983,5.983,8.985
	c0.646-0.002,1.287-0.112,1.897-0.328C7.835,8.969,7.812,9.284,7.808,9.599C7.803,10.906,8.208,12.183,8.963,13.25z M24.237,22.335
	c0.052,1.007-0.327,1.989-1.04,2.7c-0.755,0.683-1.749,1.039-2.766,0.991H7.965c-1.017,0.048-2.012-0.307-2.766-0.991
	c-0.715-0.711-1.093-1.692-1.041-2.7c0-0.504,0.017-0.997,0.051-1.477c0.039-0.521,0.106-1.04,0.2-1.554
	c0.093-0.522,0.218-1.038,0.378-1.543c0.155-0.483,0.362-0.949,0.614-1.39c0.236-0.427,0.534-0.817,0.885-1.157
	c0.352-0.331,0.767-0.591,1.219-0.763c0.507-0.196,1.046-0.295,1.59-0.289c0.223,0.059,0.433,0.164,0.614,0.306
	c0.313,0.205,0.661,0.433,1.041,0.685c2.119,1.292,4.783,1.292,6.902,0c0.381-0.253,0.728-0.481,1.041-0.685
	c0.181-0.143,0.389-0.247,0.614-0.306c0.544-0.006,1.084,0.093,1.59,0.289c0.452,0.172,0.867,0.432,1.219,0.763
	c0.35,0.34,0.647,0.73,0.885,1.157c0.252,0.441,0.457,0.906,0.614,1.39c0.159,0.506,0.286,1.021,0.378,1.543
	c0.094,0.515,0.16,1.033,0.2,1.554C24.22,21.339,24.235,21.831,24.237,22.335L24.237,22.335z M9.633,4.124
	c0,2.017-1.635,3.651-3.651,3.651S2.331,6.142,2.331,4.124c0-2.017,1.635-3.651,3.651-3.651c0.968,0,1.897,0.385,2.582,1.069
	C9.261,2.219,9.648,3.152,9.633,4.124L9.633,4.124z M19.673,9.601c0.001,3.026-2.451,5.48-5.476,5.48s-5.48-2.451-5.48-5.476
	c-0.001-3.026,2.451-5.48,5.476-5.48c1.454-0.001,2.848,0.576,3.875,1.604C19.115,6.743,19.695,8.144,19.673,9.601L19.673,9.601z
	 M27.888,12.809c0.039,0.662-0.263,1.298-0.798,1.69c-0.577,0.399-1.267,0.603-1.968,0.579h-1.911
	c-0.923-1.143-2.31-1.812-3.779-1.825c0.756-1.067,1.161-2.342,1.157-3.65c-0.004-0.315-0.027-0.629-0.071-0.941
	c0.609,0.216,1.251,0.325,1.897,0.328c0.579-0.004,1.152-0.107,1.696-0.306c0.479-0.164,0.944-0.368,1.391-0.606
	c0.193-0.125,0.401-0.227,0.62-0.299C27.298,7.775,27.887,9.453,27.888,12.809L27.888,12.809z M26.062,4.125
	c0,2.017-1.635,3.651-3.651,3.651s-3.651-1.633-3.651-3.651c0-2.017,1.635-3.651,3.651-3.651c0.968,0,1.897,0.385,2.582,1.069
	C25.689,2.219,26.076,3.152,26.062,4.125L26.062,4.125z"/>
</svg>
