<?xml version="1.0" encoding="utf-8"?>
<!-- Generator: Adobe Illustrator 17.0.0, SVG Export Plug-In . SVG Version: 6.00 Build 0)  -->
<!DOCTYPE svg PUBLIC "-//W3C//DTD SVG 1.1//EN" "http://www.w3.org/Graphics/SVG/1.1/DTD/svg11.dtd">
<svg version="1.1" id="Layer_1" xmlns="http://www.w3.org/2000/svg" xmlns:xlink="http://www.w3.org/1999/xlink" x="0px" y="0px"
	 width="23px" height="23px" viewBox="0 0 23 23" enable-background="new 0 0 23 23" xml:space="preserve">
<path id="icon-button-destaques" fill="#992A2A" d="M11.501,5.342c1.324,0,2.396-1.072,2.396-2.396S12.825,0.55,11.501,0.55
	S9.105,1.622,9.105,2.946S10.178,5.342,11.501,5.342L11.501,5.342z M19.029,19.713H3.973c-0.377,0-0.683,0.306-0.683,0.683v0.001
	v1.369c0,0.377,0.305,0.683,0.682,0.683h0.001h15.056c0.377,0,0.684-0.305,0.684-0.682c0,0,0,0,0-0.001v-1.368
	c0.001-0.378-0.305-0.686-0.682-0.687C19.031,19.713,19.029,19.713,19.029,19.713L19.029,19.713z M22.145,8.427l-1.219-0.681
	c-0.319-0.201-0.74-0.113-0.952,0.2c-0.468,0.627-1.252,0.93-2.02,0.78c-0.99-0.223-1.685-1.113-1.662-2.128
	c0-0.315-0.256-0.571-0.571-0.571l0,0h-1.659c-0.259-0.005-0.488,0.171-0.55,0.424c-0.233,1.109-1.321,1.82-2.43,1.588
	c-0.797-0.168-1.42-0.79-1.588-1.588c-0.062-0.252-0.29-0.428-0.55-0.424H7.287c-0.315,0-0.571,0.256-0.571,0.571l0,0
	c0.023,1.107-0.808,2.047-1.91,2.159C4.112,8.808,3.442,8.498,3.029,7.939c-0.212-0.308-0.631-0.392-0.945-0.19L0.862,8.433
	C0.574,8.624,0.475,9.001,0.63,9.309l4.386,9.04h12.983l4.387-9.046C22.537,8.992,22.435,8.616,22.145,8.427L22.145,8.427z"/>
</svg>
