<svg xmlns="http://www.w3.org/2000/svg" width="148.794" height="142.415" viewBox="0 0 148.794 142.415">
  <path id="icone-estrela" d="M174.321,47.681l-40.633-5.924L115.527,4.934a8.907,8.907,0,0,0-15.964,0L81.4,41.757,40.768,47.681a8.9,8.9,0,0,0-4.923,15.185l29.4,28.646L58.29,131.979a8.9,8.9,0,0,0,12.9,9.373l36.35-19.107,36.35,19.107a8.9,8.9,0,0,0,12.9-9.373l-6.953-40.466,29.4-28.646a8.9,8.9,0,0,0-4.923-15.185Zm-38.8,39.159,6.591,38.492-34.57-18.161-34.57,18.161L79.566,86.84,51.587,59.584l38.659-5.618,17.3-35.043,17.3,35.043L163.5,59.584,135.523,86.84Z" transform="translate(-33.147 0.021)" fill="#50992a"/>
</svg>
