<svg xmlns="http://www.w3.org/2000/svg" width="183.304" height="109.982" viewBox="0 0 183.304 109.982">
  <path id="icone-parceiros" d="M148.705,82.3,135.072,68.669A16.111,16.111,0,0,0,123.73,64H58.772A16.162,16.162,0,0,0,47.43,68.669L33.8,82.3H0v73.236H18.33a9.131,9.131,0,0,0,9.137-9.079h2.606L54.3,168.34a25.2,25.2,0,0,0,30.245,1.088,17.578,17.578,0,0,0,25.748-2.32,16.068,16.068,0,0,0,18.33-4.812l7.5-9.251a15.71,15.71,0,0,0,3.122-6.587h16.583a9.15,9.15,0,0,0,9.137,9.079H183.3V82.3ZM13.748,146.372a4.583,4.583,0,1,1,4.583-4.583A4.6,4.6,0,0,1,13.748,146.372Zm111.7-1.976-7.475,9.222a2.311,2.311,0,0,1-3.236.344l-6.845-5.556L99.3,158.86a3.832,3.832,0,0,1-5.155.687L83.6,150.525l-4.468,5.5a11.412,11.412,0,0,1-15.839,1.89l-27.868-25.2H27.5V96.021h12L57.168,78.378c.573-.229,1.06-.43,1.633-.659H75.04L63.956,87.887A20.5,20.5,0,0,0,62.7,116.9c4.239,4.64,17.528,11.8,29.071,1.26l2.349-2.148,30.99,25.147a2.34,2.34,0,0,1,.344,3.236Zm30.36-11.686h-19.82a16.049,16.049,0,0,0-2.205-2.205l-29.415-23.887,3.58-3.265a4.577,4.577,0,0,0,.286-6.473l-3.122-3.351a4.6,4.6,0,0,0-6.473-.286l-15.81,14.492c-2.721,2.492-7.361,2.692-9.91,0a6.8,6.8,0,0,1,.344-9.709L92.053,80.812a11.4,11.4,0,0,1,7.733-3.007l23.973-.057a2.14,2.14,0,0,1,1.575.659L143.006,96.05h12.8Zm13.748,13.662a4.583,4.583,0,1,1,4.583-4.583A4.6,4.6,0,0,1,169.556,146.372Z" transform="translate(0 -64)" fill="#50992a"/>
</svg>
