<svg xmlns="http://www.w3.org/2000/svg" width="261.117" height="141.935" viewBox="0 0 261.117 141.935">
  <g id="logo_rodape" transform="translate(0)">
    <g id="Grupo_218" data-name="Grupo 218" transform="translate(96.029)">
      <path id="Caminho_536" data-name="Caminho 536" d="M2482.47,5125.417l20.295-17.277,9.552,3.787-17.928,13.491Z" transform="translate(-2482.47 -5088.564)" fill="#fff"/>
      <path id="Caminho_537" data-name="Caminho 537" d="M2514.323,5112.688l18.355,7V5142.2l-38.594,5.925v-20.143Z" transform="translate(-2480.614 -5087.818)" fill="#fff"/>
      <path id="Caminho_538" data-name="Caminho 538" d="M2502.614,5108.281l19.921-16.958,43.29,36.853h-11.753Z" transform="translate(-2479.25 -5091.323)" fill="#fff"/>
      <path id="Caminho_539" data-name="Caminho 539" d="M2530.523,5119.96l-.172-.069v43.643h17.567v-36.947Z" transform="translate(-2474.814 -5086.636)" fill="#fff"/>
      <path id="Caminho_540" data-name="Caminho 540" d="M2494.084,5147.14v12.925h38.7v-19.029Z" transform="translate(-2480.614 -5083.168)" fill="#fff"/>
    </g>
    <g id="Grupo_219" data-name="Grupo 219" transform="translate(0 90.234)">
      <path id="Caminho_541" data-name="Caminho 541" d="M2561.371,5206.823h.9v7.776h-.9Zm-.046-3.034h.988v1.339h-.988Z" transform="translate(-2373.832 -5163.11)" fill="#fff"/>
      <path id="Caminho_542" data-name="Caminho 542" d="M2578.562,5206.823h.9v7.776h-.9Zm-.048-3.034h.988v1.339h-.988Z" transform="translate(-2371.083 -5163.11)" fill="#fff"/>
      <path id="Caminho_543" data-name="Caminho 543" d="M2596.471,5206.823h.9v7.776h-.9Zm-.043-3.034h.986v1.339h-.986Z" transform="translate(-2368.218 -5163.11)" fill="#fff"/>
      <path id="Caminho_544" data-name="Caminho 544" d="M2434.409,5199.849v.06a17.5,17.5,0,0,1-3.684,1.3,16.331,16.331,0,0,1-3.742.427,5.1,5.1,0,0,1-3.6-1.054,4.7,4.7,0,0,1-1.1-3.507q0-1.636.232-5.428t.236-5.991q0-4.72-1.255-6.667a4.537,4.537,0,0,0-4.134-1.952,8.456,8.456,0,0,0-2.917.552,15.138,15.138,0,0,0-3.2,1.684q-.19,4.685-.253,6.542c-.039,1.235-.064,2.168-.064,2.8a49.417,49.417,0,0,0,.395,6.768,15.8,15.8,0,0,0,1.208,4.525,18.227,18.227,0,0,1-3.731,1.3,16.456,16.456,0,0,1-3.731.427,4.569,4.569,0,0,1-3.589-1.178q-1.018-1.18-1.016-4.234,0-1.225.371-6.351c.258-3.418.378-6.408.378-8.965a50.065,50.065,0,0,0-.359-6.607,14.654,14.654,0,0,0-1.174-4.309,23.211,23.211,0,0,1,2.788-.661,15.078,15.078,0,0,1,2.538-.219,7.259,7.259,0,0,1,4.327,1.113,4.294,4.294,0,0,1,1.724,3.26,20.3,20.3,0,0,1,5.265-3.287,13.855,13.855,0,0,1,5.329-1.086c3.946,0,6.821,1.111,8.6,3.332s2.681,5.81,2.681,10.761c0,.883-.021,1.994-.064,3.35s-.062,2.283-.062,2.781a43.411,43.411,0,0,0,.392,6.544,12.318,12.318,0,0,0,1.205,3.966" transform="translate(-2399.681 -5168.797)" fill="#fff"/>
      <path id="Caminho_545" data-name="Caminho 545" d="M2440.774,5186.251a8,8,0,0,0,2.208,5.875,7.819,7.819,0,0,0,5.818,2.237,7.609,7.609,0,0,0,5.735-2.391,9.242,9.242,0,0,0,.093-12.064,7.716,7.716,0,0,0-5.828-2.28,7.574,7.574,0,0,0-5.8,2.39,8.778,8.778,0,0,0-2.225,6.233m26.08-.98a17.414,17.414,0,0,1-1.049,5.977,16.864,16.864,0,0,1-2.995,5.191,17.912,17.912,0,0,1-6.347,4.84,19.6,19.6,0,0,1-8.1,1.6q-7.836,0-12.776-4.577a15.364,15.364,0,0,1-4.935-11.809,16.057,16.057,0,0,1,5.3-12.36q5.292-4.881,13.509-4.879a17.724,17.724,0,0,1,12.506,4.515,14.972,14.972,0,0,1,4.889,11.5" transform="translate(-2394.729 -5168.773)" fill="#fff"/>
      <path id="Caminho_546" data-name="Caminho 546" d="M2484.372,5171.685a10.478,10.478,0,0,1,3.151-1.9,9.952,9.952,0,0,1,3.527-.609,5.4,5.4,0,0,1,4.167,1.588,6.374,6.374,0,0,1,1.472,4.509,25.137,25.137,0,0,1-2.4,9.69,44.22,44.22,0,0,1-6.472,10.541,23.261,23.261,0,0,1-5.453,5.126,9.921,9.921,0,0,1-5.331,1.729q-4.858,0-8.429-11.039c-.129-.377-.221-.673-.282-.882a73.849,73.849,0,0,0-4.026-10.664,11.639,11.639,0,0,0-3.432-4.153,16.229,16.229,0,0,1,3.679-4.59,6.28,6.28,0,0,1,3.962-1.482,4.209,4.209,0,0,1,3.542,1.886q1.382,1.893,3.574,9.566c.146.527.357,1.282.627,2.266q2.476,8.774,3.73,8.776a1.643,1.643,0,0,0,1-.568,9.34,9.34,0,0,0,1.314-1.7,24.017,24.017,0,0,0,3-5.979,19.346,19.346,0,0,0,1.05-6.132,10.613,10.613,0,0,0-.453-3.321,8.29,8.29,0,0,0-1.522-2.657" transform="translate(-2389.896 -5168.788)" fill="#fff"/>
      <path id="Caminho_547" data-name="Caminho 547" d="M2511.295,5187.032c-.608-.111-1.2-.183-1.775-.236s-1.13-.08-1.676-.08a8.9,8.9,0,0,0-5.09,1.242,4.011,4.011,0,0,0-1.8,3.506,3.83,3.83,0,0,0,1.233,3.02,4.939,4.939,0,0,0,3.4,1.1,7.285,7.285,0,0,0,3.025-.629,9.173,9.173,0,0,0,2.742-2.011c-.023-.359-.037-.794-.046-1.309s-.017-1.356-.017-2.534Zm11.254,12.423a19.06,19.06,0,0,1-3.606,1.653,10.093,10.093,0,0,1-3.134.55,4.332,4.332,0,0,1-2.916-.9,4.2,4.2,0,0,1-1.287-2.689,16.184,16.184,0,0,1-4.523,3.023,12.559,12.559,0,0,1-4.907.94,10.726,10.726,0,0,1-7.528-2.613,8.854,8.854,0,0,1-2.849-6.854,9.663,9.663,0,0,1,3.949-8.147q3.952-2.985,10.878-2.988.94,0,2.148.093c.8.063,1.688.155,2.647.281v-1.161a4.59,4.59,0,0,0-1.771-3.837,7.908,7.908,0,0,0-4.971-1.387,11.445,11.445,0,0,0-4.669.881,8.135,8.135,0,0,0-3.288,2.678,5.153,5.153,0,0,1-1.914-1.544,3.462,3.462,0,0,1-.658-2.077q0-2.862,3.4-4.608a20.174,20.174,0,0,1,9.139-1.745q7.21,0,10.532,3.065t3.324,9.674c0,.1-.021.937-.064,2.5s-.063,3.066-.063,4.515a35.551,35.551,0,0,0,.5,6.62,10.191,10.191,0,0,0,1.632,4.072" transform="translate(-2384.95 -5168.815)" fill="#fff"/>
      <path id="Caminho_548" data-name="Caminho 548" d="M2551.177,5191.741a10.612,10.612,0,0,1,1.533,2.47,5.952,5.952,0,0,1,.507,2.342,4.774,4.774,0,0,1-2.636,4.245,13.938,13.938,0,0,1-7.177,1.574q-7.459,0-12.02-4.1a13.824,13.824,0,0,1-4.562-10.8,18.093,18.093,0,0,1,1.711-7.85,19.118,19.118,0,0,1,5.059-6.432,16.864,16.864,0,0,1,5.535-3.036,20.522,20.522,0,0,1,6.6-1.086,9.209,9.209,0,0,1,5,1.132,3.646,3.646,0,0,1,1.735,3.24,5.79,5.79,0,0,1-.624,2.565,11.954,11.954,0,0,1-1.885,2.658,9.9,9.9,0,0,0-2.221-.929,8.908,8.908,0,0,0-2.352-.3,8.052,8.052,0,0,0-6,2.533,8.567,8.567,0,0,0-2.461,6.212,7.8,7.8,0,0,0,2.023,5.63,7.084,7.084,0,0,0,5.375,2.109,11.5,11.5,0,0,0,3.478-.522,13.384,13.384,0,0,0,3.387-1.649" transform="translate(-2379.349 -5168.806)" fill="#fff"/>
      <path id="Caminho_549" data-name="Caminho 549" d="M2570.242,5187.032c-.607-.111-1.2-.183-1.769-.236s-1.132-.08-1.676-.08a8.9,8.9,0,0,0-5.094,1.242,4.011,4.011,0,0,0-1.807,3.506,3.824,3.824,0,0,0,1.242,3.02,4.924,4.924,0,0,0,3.4,1.1,7.27,7.27,0,0,0,3.026-.629,9.17,9.17,0,0,0,2.742-2.011c-.017-.359-.037-.794-.048-1.309s-.015-1.356-.015-2.534Zm11.255,12.423a19.138,19.138,0,0,1-3.608,1.653,10.1,10.1,0,0,1-3.13.55,4.323,4.323,0,0,1-2.917-.9,4.171,4.171,0,0,1-1.284-2.689,16.26,16.26,0,0,1-4.531,3.023,12.563,12.563,0,0,1-4.905.94,10.687,10.687,0,0,1-7.52-2.613,8.835,8.835,0,0,1-2.854-6.854,9.663,9.663,0,0,1,3.951-8.147q3.944-2.985,10.873-2.988.945,0,2.147.093t2.652.281v-1.161a4.6,4.6,0,0,0-1.772-3.837,7.9,7.9,0,0,0-4.967-1.387,11.457,11.457,0,0,0-4.673.881,8.157,8.157,0,0,0-3.287,2.678,5.165,5.165,0,0,1-1.915-1.544,3.458,3.458,0,0,1-.66-2.077q0-2.862,3.4-4.608a20.152,20.152,0,0,1,9.137-1.745q7.207,0,10.532,3.065t3.317,9.674c0,.1-.015.937-.058,2.5s-.063,3.066-.063,4.515a35.253,35.253,0,0,0,.5,6.62,10.11,10.11,0,0,0,1.63,4.072" transform="translate(-2375.523 -5168.815)" fill="#fff"/>
      <path id="Caminho_550" data-name="Caminho 550" d="M2580.967,5193.948a10.951,10.951,0,0,0,2.528,1.023,10.4,10.4,0,0,0,2.617.329,5.468,5.468,0,0,0,2.93-.694,2.081,2.081,0,0,0,1.115-1.822q0-1.418-3.734-3.839c-.544-.354-.97-.64-1.287-.849a15.781,15.781,0,0,1-4.338-3.8,7.04,7.04,0,0,1-1.115-4q0-4.715,4.281-8.083a16.353,16.353,0,0,1,10.422-3.368,5.78,5.78,0,0,1,3.542.932,3.146,3.146,0,0,1,1.221,2.657,5.437,5.437,0,0,1-.486,2.185,9.562,9.562,0,0,1-1.458,2.281,10.337,10.337,0,0,0-2-.724,8.541,8.541,0,0,0-1.975-.247,6.071,6.071,0,0,0-3.338.815,2.407,2.407,0,0,0-1.266,2.077,2.72,2.72,0,0,0,.653,1.635,12.539,12.539,0,0,0,2.229,2.046c.289.232.732.553,1.313.978q6.048,4.523,6.054,8.175a9.451,9.451,0,0,1-4,7.693,15.894,15.894,0,0,1-10.109,3.128,7.018,7.018,0,0,1-4.137-1.008,3.458,3.458,0,0,1-1.379-2.986,6.11,6.11,0,0,1,.423-2.137,11.05,11.05,0,0,1,1.3-2.392" transform="translate(-2370.965 -5168.842)" fill="#fff"/>
      <path id="Caminho_551" data-name="Caminho 551" d="M2617.786,5187.032c-.605-.111-1.2-.183-1.773-.236s-1.132-.08-1.677-.08a8.894,8.894,0,0,0-5.09,1.242,4.007,4.007,0,0,0-1.806,3.506,3.818,3.818,0,0,0,1.239,3.02,4.922,4.922,0,0,0,3.4,1.1,7.288,7.288,0,0,0,3.026-.629,9.208,9.208,0,0,0,2.744-2.011c-.023-.359-.039-.794-.05-1.309s-.012-1.356-.012-2.534Zm11.253,12.423a19.015,19.015,0,0,1-3.609,1.653,10.091,10.091,0,0,1-3.131.55,4.317,4.317,0,0,1-2.915-.9,4.156,4.156,0,0,1-1.286-2.689,16.284,16.284,0,0,1-4.529,3.023,12.551,12.551,0,0,1-4.909.94,10.718,10.718,0,0,1-7.523-2.613,8.858,8.858,0,0,1-2.854-6.854,9.668,9.668,0,0,1,3.956-8.147q3.95-2.985,10.873-2.988c.63,0,1.341.031,2.146.093s1.688.155,2.654.281v-1.161a4.6,4.6,0,0,0-1.774-3.837,7.9,7.9,0,0,0-4.968-1.387,11.456,11.456,0,0,0-4.672.881,8.193,8.193,0,0,0-3.293,2.678,5.175,5.175,0,0,1-1.908-1.544,3.44,3.44,0,0,1-.658-2.077q0-2.862,3.4-4.608a20.147,20.147,0,0,1,9.134-1.745q7.214,0,10.534,3.065t3.322,9.674c0,.1-.017.937-.067,2.5s-.059,3.066-.059,4.515a35.322,35.322,0,0,0,.5,6.62,10.156,10.156,0,0,0,1.631,4.072" transform="translate(-2367.921 -5168.815)" fill="#fff"/>
      <path id="Caminho_552" data-name="Caminho 552" d="M2605.051,5209.426a3.281,3.281,0,0,0-.523-1.043,2.472,2.472,0,0,0-.831-.7,2.494,2.494,0,0,0-3.061.7,4.4,4.4,0,0,0-.672,2.576,3.28,3.28,0,0,0,.747,2.236,2.444,2.444,0,0,0,1.9.81,2.259,2.259,0,0,0,1.922-.929,3.887,3.887,0,0,0,.7-2.387,4.28,4.28,0,0,0-.18-1.254m.18-5.637h.9v10.81h-.9v-1.367h-.031a2.7,2.7,0,0,1-1.137,1.157,3.178,3.178,0,0,1-1.556.418,3.742,3.742,0,0,1-1.577-.3,2.861,2.861,0,0,1-1.09-.865,3.62,3.62,0,0,1-.629-1.289,6.088,6.088,0,0,1-.205-1.623,5.719,5.719,0,0,1,.211-1.575,3.877,3.877,0,0,1,.645-1.315,2.957,2.957,0,0,1,1.092-.9,3.365,3.365,0,0,1,1.509-.324,3.474,3.474,0,0,1,1.594.384,2.846,2.846,0,0,1,1.175,1.072Z" transform="translate(-2367.806 -5163.11)" fill="#fff"/>
      <path id="Caminho_553" data-name="Caminho 553" d="M2612.728,5209.008a3.174,3.174,0,0,0-.463-1.036,2.11,2.11,0,0,0-.825-.7,2.675,2.675,0,0,0-1.2-.247,2.493,2.493,0,0,0-1.181.269,2.4,2.4,0,0,0-.832.728,3.235,3.235,0,0,0-.472,1.045,5.091,5.091,0,0,0-.149,1.247,3.827,3.827,0,0,0,.691,2.387,2.3,2.3,0,0,0,1.943.9,2.471,2.471,0,0,0,1.19-.269,2.3,2.3,0,0,0,.821-.736,3.232,3.232,0,0,0,.472-1.049,4.967,4.967,0,0,0,.149-1.231,5.27,5.27,0,0,0-.149-1.306m-5.056,4.315a4.169,4.169,0,0,1-1.017-3.009,4.524,4.524,0,0,1,.936-2.942,3.649,3.649,0,0,1,5.323-.009,4.569,4.569,0,0,1,.922,2.952,4.356,4.356,0,0,1-.981,2.971,3.288,3.288,0,0,1-2.61,1.128,3.522,3.522,0,0,1-2.573-1.09" transform="translate(-2366.583 -5162.712)" fill="#fff"/>
      <path id="Caminho_554" data-name="Caminho 554" d="M2582.985,5213.067a2.256,2.256,0,0,0,1.921.929,2.44,2.44,0,0,0,1.9-.81,3.27,3.27,0,0,0,.75-2.236,4.389,4.389,0,0,0-.675-2.576,2.491,2.491,0,0,0-3.059-.7,2.483,2.483,0,0,0-.831.7,3.322,3.322,0,0,0-.523,1.043,4.28,4.28,0,0,0-.18,1.254,3.867,3.867,0,0,0,.7,2.387m-.7,1.531h-.9v-10.81h.9v4.279a2.834,2.834,0,0,1,1.174-1.072,3.475,3.475,0,0,1,1.593-.384,3.373,3.373,0,0,1,1.522.324,3,3,0,0,1,1.081.9,3.969,3.969,0,0,1,.645,1.315,5.738,5.738,0,0,1,.211,1.575,6.154,6.154,0,0,1-.2,1.628,3.731,3.731,0,0,1-.619,1.292,2.844,2.844,0,0,1-1.094.856,3.786,3.786,0,0,1-1.584.3,3.2,3.2,0,0,1-1.55-.418,2.686,2.686,0,0,1-1.144-1.157h-.03Z" transform="translate(-2370.622 -5163.11)" fill="#fff"/>
      <path id="Caminho_555" data-name="Caminho 555" d="M2594.432,5206.4h.9v7.776h-.9v-1.082a5.47,5.47,0,0,1-1.071.948,2.629,2.629,0,0,1-1.429.342,3.35,3.35,0,0,1-1.278-.216,2.14,2.14,0,0,1-.853-.6,2.345,2.345,0,0,1-.471-.9,4.027,4.027,0,0,1-.152-1.146v-5.12h.9v5.1a2.215,2.215,0,0,0,.479,1.546,1.951,1.951,0,0,0,1.511.524,2.072,2.072,0,0,0,1.727-.815,3.371,3.371,0,0,0,.637-2.127Z" transform="translate(-2369.377 -5162.683)" fill="#fff"/>
      <path id="Caminho_556" data-name="Caminho 556" d="M2615.2,5214.2h-.9v-7.776h.9v1.457h.03a2.608,2.608,0,0,1,.942-1.294,2.93,2.93,0,0,1,1.587-.374v.978a2.778,2.778,0,0,0-1.236.246,2.01,2.01,0,0,0-.79.683,2.78,2.78,0,0,0-.41,1,6.11,6.11,0,0,0-.123,1.262Z" transform="translate(-2365.36 -5162.712)" fill="#fff"/>
      <path id="Caminho_557" data-name="Caminho 557" d="M2623.682,5210.118a4.642,4.642,0,0,1-1.025.293c-.343.055-.775.1-1.292.142a3.121,3.121,0,0,0-1.624.481,1.349,1.349,0,0,0-.559,1.171,1.2,1.2,0,0,0,.493,1.034,1.937,1.937,0,0,0,1.181.36,4.005,4.005,0,0,0,1.054-.134,2.927,2.927,0,0,0,.906-.412,1.981,1.981,0,0,0,.634-.714,2.1,2.1,0,0,0,.233-1Zm-1.511-.451c.2-.02.413-.053.645-.1a2.607,2.607,0,0,0,.54-.16.48.48,0,0,0,.26-.308,1.747,1.747,0,0,0,.067-.5,1.483,1.483,0,0,0-.464-1.156,2.151,2.151,0,0,0-1.467-.419,2.717,2.717,0,0,0-1.571.4,1.85,1.85,0,0,0-.687,1.361h-.912a2.453,2.453,0,0,1,.963-1.938,3.725,3.725,0,0,1,2.222-.63,3.356,3.356,0,0,1,2.049.569,2.159,2.159,0,0,1,.761,1.847v4.236q0,.717.407.717a1.778,1.778,0,0,0,.538-.119v.706c-.122.04-.24.077-.358.107a1.493,1.493,0,0,1-.346.044,2.031,2.031,0,0,1-.4-.044.7.7,0,0,1-.554-.362,1.96,1.96,0,0,1-.161-.8,3.709,3.709,0,0,1-1.3.962,3.865,3.865,0,0,1-1.584.328,2.886,2.886,0,0,1-1.842-.584,1.971,1.971,0,0,1-.747-1.652q0-1.979,2.708-2.339Z" transform="translate(-2364.733 -5162.712)" fill="#fff"/>
      <path id="Caminho_558" data-name="Caminho 558" d="M2559.2,5209.426a3.282,3.282,0,0,0-.523-1.043,2.464,2.464,0,0,0-.83-.7,2.489,2.489,0,0,0-3.057.7,4.377,4.377,0,0,0-.675,2.576,3.261,3.261,0,0,0,.748,2.236,2.445,2.445,0,0,0,1.9.81,2.255,2.255,0,0,0,1.921-.929,3.888,3.888,0,0,0,.7-2.387,4.372,4.372,0,0,0-.182-1.254m.182-5.637h.9v10.81h-.9v-1.367h-.034a2.684,2.684,0,0,1-1.137,1.157,3.168,3.168,0,0,1-1.556.418,3.733,3.733,0,0,1-1.576-.3,2.868,2.868,0,0,1-1.092-.865,3.661,3.661,0,0,1-.629-1.289,6.142,6.142,0,0,1-.2-1.623,5.683,5.683,0,0,1,.21-1.575,3.951,3.951,0,0,1,.64-1.315,3.012,3.012,0,0,1,1.094-.9,3.377,3.377,0,0,1,1.512-.324,3.48,3.48,0,0,1,1.594.384,2.854,2.854,0,0,1,1.175,1.072Z" transform="translate(-2375.137 -5163.11)" fill="#fff"/>
      <path id="Caminho_559" data-name="Caminho 559" d="M2564.689,5211.768a2.3,2.3,0,0,0,.754,1.415,2.543,2.543,0,0,0,1.563.417,2.153,2.153,0,0,0,1.421-.417,1.3,1.3,0,0,0,.494-1.022,1.1,1.1,0,0,0-.171-.631,1.19,1.19,0,0,0-.472-.4,3.728,3.728,0,0,0-.659-.255c-.239-.072-.536-.141-.9-.212-.449-.089-.819-.177-1.107-.261a3.726,3.726,0,0,1-.814-.353,1.687,1.687,0,0,1-.615-.624,1.91,1.91,0,0,1-.231-.982,2,2,0,0,1,.734-1.607,3.005,3.005,0,0,1,1.987-.615,3.3,3.3,0,0,1,2.066.586,2.663,2.663,0,0,1,.927,1.86h-.913a1.753,1.753,0,0,0-.658-1.245,2.409,2.409,0,0,0-1.436-.39,2.036,2.036,0,0,0-1.292.36,1.175,1.175,0,0,0-.457.975,1,1,0,0,0,.173.592,1.205,1.205,0,0,0,.461.4,4.24,4.24,0,0,0,.63.254c.222.07.524.15.906.24.466.111.841.212,1.121.3a3.86,3.86,0,0,1,.814.383,1.774,1.774,0,0,1,.861,1.613,1.912,1.912,0,0,1-.868,1.676,4,4,0,0,1-2.289.59,2.91,2.91,0,0,1-2.11-.749,2.729,2.729,0,0,1-.836-1.893Z" transform="translate(-2373.439 -5162.712)" fill="#fff"/>
      <path id="Caminho_560" data-name="Caminho 560" d="M2573.39,5214.506a1.18,1.18,0,0,1-.166.047,3.846,3.846,0,0,1-.869.131,1.373,1.373,0,0,1-1.031-.352,1.672,1.672,0,0,1-.346-1.2v-5.686h-1.09v-.75h1.09v-2.162h.9v2.162h1.453v.75h-1.453v5.329a2.018,2.018,0,0,0,.127.871c.086.15.3.224.652.224a3.153,3.153,0,0,0,.734-.1Z" transform="translate(-2372.462 -5162.987)" fill="#fff"/>
      <path id="Caminho_561" data-name="Caminho 561" d="M2575.081,5214.2h-.9v-7.776h.9v1.457h.029a2.613,2.613,0,0,1,.94-1.294,2.932,2.932,0,0,1,1.587-.374v.978a2.767,2.767,0,0,0-1.233.246,2.015,2.015,0,0,0-.793.683,2.785,2.785,0,0,0-.411,1,6.089,6.089,0,0,0-.118,1.262Z" transform="translate(-2371.776 -5162.712)" fill="#fff"/>
    </g>
  </g>
</svg>
