<svg id="logo" xmlns="http://www.w3.org/2000/svg" width="225.117" height="121.935" viewBox="0 0 225.117 121.935">
  <g id="Grupo_218" data-name="Grupo 218" transform="translate(-2399.681 -5091.322)">
    <path id="Caminho_536" data-name="Caminho 536" d="M2482.47,5122.982l17.5-14.843,8.235,3.253-15.456,11.59Z" fill="#50992a"/>
    <path id="Caminho_537" data-name="Caminho 537" d="M2511.533,5112.688l15.825,6.016v19.34l-33.274,5.09v-17.3Z" fill="#50992a"/>
    <path id="Caminho_538" data-name="Caminho 538" d="M2502.614,5105.891l17.175-14.569,37.322,31.66h-10.133Z" fill="#50992a"/>
    <path id="Caminho_539" data-name="Caminho 539" d="M2530.5,5119.95l-.148-.059v37.493H2545.5v-31.741Z" fill="#50992a"/>
    <path id="Caminho_540" data-name="Caminho 540" d="M2494.084,5146.28v11.1h33.366v-16.348Z" fill="#50992a"/>
  </g>
  <g id="Grupo_219" data-name="Grupo 219" transform="translate(-2399.681 -5091.322)">
    <path id="Caminho_541" data-name="Caminho 541" d="M2561.364,5206.4h.773v6.68h-.773Zm-.04-2.606h.852v1.15h-.852Z" fill="#707173"/>
    <path id="Caminho_542" data-name="Caminho 542" d="M2578.555,5206.4h.772v6.68h-.772Zm-.041-2.606h.852v1.15h-.852Z" fill="#707173"/>
    <path id="Caminho_543" data-name="Caminho 543" d="M2596.465,5206.4h.775v6.68h-.775Zm-.037-2.606h.85v1.15h-.85Z" fill="#707173"/>
    <path id="Caminho_544" data-name="Caminho 544" d="M2429.621,5195.518v.052a15.124,15.124,0,0,1-3.176,1.12,14.112,14.112,0,0,1-3.226.367,4.411,4.411,0,0,1-3.108-.905,4.032,4.032,0,0,1-.945-3.013q0-1.406.2-4.663t.2-5.147q0-4.055-1.082-5.728a3.916,3.916,0,0,0-3.564-1.677,7.312,7.312,0,0,0-2.515.474,13.053,13.053,0,0,0-2.756,1.446q-.164,4.025-.218,5.621c-.033,1.061-.055,1.862-.055,2.4a42.315,42.315,0,0,0,.34,5.814,13.531,13.531,0,0,0,1.042,3.888,15.754,15.754,0,0,1-3.217,1.12,14.22,14.22,0,0,1-3.217.367,3.947,3.947,0,0,1-3.094-1.012,5.666,5.666,0,0,1-.876-3.638q0-1.052.32-5.456c.222-2.937.326-5.505.326-7.7a42.864,42.864,0,0,0-.31-5.676,12.554,12.554,0,0,0-1.012-3.7,20.155,20.155,0,0,1,2.4-.568,13.036,13.036,0,0,1,2.188-.188,6.276,6.276,0,0,1,3.731.957,3.685,3.685,0,0,1,1.486,2.8,17.506,17.506,0,0,1,4.539-2.823,11.979,11.979,0,0,1,4.594-.934c3.4,0,5.881.955,7.418,2.863s2.311,4.991,2.311,9.244c0,.759-.018,1.713-.055,2.878s-.053,1.961-.053,2.389a37.148,37.148,0,0,0,.338,5.622,10.549,10.549,0,0,0,1.039,3.407" fill="#707173"/>
    <path id="Caminho_545" data-name="Caminho 545" d="M2439.378,5183.857a6.857,6.857,0,0,0,1.9,5.048,6.755,6.755,0,0,0,5.016,1.921,6.572,6.572,0,0,0,4.945-2.054,7.919,7.919,0,0,0,.08-10.364,6.665,6.665,0,0,0-5.025-1.959,6.541,6.541,0,0,0-5,2.053,7.526,7.526,0,0,0-1.918,5.355m22.484-.842a14.921,14.921,0,0,1-.9,5.135,14.477,14.477,0,0,1-2.582,4.46,15.436,15.436,0,0,1-5.472,4.158,16.943,16.943,0,0,1-6.985,1.379,15.587,15.587,0,0,1-11.015-3.932,13.177,13.177,0,0,1-4.254-10.145,13.772,13.772,0,0,1,4.568-10.619,16.543,16.543,0,0,1,11.647-4.191,15.313,15.313,0,0,1,10.782,3.878,12.841,12.841,0,0,1,4.215,9.877" fill="#707173"/>
    <path id="Caminho_546" data-name="Caminho 546" d="M2481.131,5171.33a9.038,9.038,0,0,1,2.717-1.636,8.611,8.611,0,0,1,3.041-.523,4.667,4.667,0,0,1,3.593,1.364,5.464,5.464,0,0,1,1.269,3.874,21.538,21.538,0,0,1-2.067,8.325,37.976,37.976,0,0,1-5.58,9.055,20.023,20.023,0,0,1-4.7,4.4,8.573,8.573,0,0,1-4.6,1.485q-4.188,0-7.267-9.483c-.111-.324-.191-.579-.243-.758a63.3,63.3,0,0,0-3.471-9.161,10.007,10.007,0,0,0-2.959-3.568,13.951,13.951,0,0,1,3.172-3.944,5.427,5.427,0,0,1,3.416-1.273,3.632,3.632,0,0,1,3.054,1.621q1.191,1.626,3.081,8.218c.126.453.308,1.1.541,1.947q2.134,7.537,3.216,7.539a1.418,1.418,0,0,0,.866-.488,8.015,8.015,0,0,0,1.133-1.457,20.6,20.6,0,0,0,2.583-5.137,16.565,16.565,0,0,0,.905-5.268,9.084,9.084,0,0,0-.391-2.853,7.119,7.119,0,0,0-1.312-2.283" fill="#707173"/>
    <path id="Caminho_547" data-name="Caminho 547" d="M2508.607,5184.492c-.524-.1-1.032-.157-1.53-.2s-.974-.069-1.445-.069a7.694,7.694,0,0,0-4.388,1.067,3.442,3.442,0,0,0-1.553,3.012,3.285,3.285,0,0,0,1.063,2.594,4.268,4.268,0,0,0,2.935.948,6.3,6.3,0,0,0,2.608-.54,7.907,7.907,0,0,0,2.364-1.728c-.02-.308-.032-.682-.04-1.124s-.014-1.165-.014-2.177Zm9.7,10.673a16.475,16.475,0,0,1-3.109,1.42,8.735,8.735,0,0,1-2.7.472,3.744,3.744,0,0,1-2.514-.771,3.605,3.605,0,0,1-1.11-2.31,13.963,13.963,0,0,1-3.9,2.6,10.862,10.862,0,0,1-4.23.808,9.267,9.267,0,0,1-6.49-2.245,7.592,7.592,0,0,1-2.456-5.888,8.291,8.291,0,0,1,3.4-7q3.407-2.563,9.378-2.567.81,0,1.852.08c.691.054,1.455.133,2.282.242v-1a3.938,3.938,0,0,0-1.527-3.3,6.835,6.835,0,0,0-4.286-1.192,9.9,9.9,0,0,0-4.025.757,7.01,7.01,0,0,0-2.835,2.3,4.434,4.434,0,0,1-1.65-1.326,2.967,2.967,0,0,1-.567-1.784q0-2.458,2.93-3.959a17.448,17.448,0,0,1,7.879-1.5q6.216,0,9.08,2.633t2.866,8.311c0,.09-.018.8-.055,2.15s-.054,2.634-.054,3.879a30.452,30.452,0,0,0,.431,5.687,8.737,8.737,0,0,0,1.407,3.5" fill="#707173"/>
    <path id="Caminho_548" data-name="Caminho 548" d="M2547.819,5188.545a9.1,9.1,0,0,1,1.322,2.122,5.1,5.1,0,0,1,.437,2.012,4.1,4.1,0,0,1-2.273,3.647,12.055,12.055,0,0,1-6.188,1.352q-6.43,0-10.363-3.526a11.856,11.856,0,0,1-3.933-9.281,15.5,15.5,0,0,1,1.475-6.744,16.433,16.433,0,0,1,4.361-5.526,14.565,14.565,0,0,1,4.772-2.608,17.757,17.757,0,0,1,5.687-.933,7.964,7.964,0,0,1,4.314.972,3.13,3.13,0,0,1,1.5,2.784,4.96,4.96,0,0,1-.538,2.2,10.281,10.281,0,0,1-1.625,2.283,8.545,8.545,0,0,0-1.915-.8,7.71,7.71,0,0,0-2.028-.256,6.953,6.953,0,0,0-5.175,2.176,7.346,7.346,0,0,0-2.122,5.336,6.684,6.684,0,0,0,1.744,4.837,6.119,6.119,0,0,0,4.634,1.812,9.957,9.957,0,0,0,3-.448,11.567,11.567,0,0,0,2.92-1.417" fill="#707173"/>
    <path id="Caminho_549" data-name="Caminho 549" d="M2567.554,5184.492c-.523-.1-1.032-.157-1.525-.2s-.976-.069-1.445-.069a7.7,7.7,0,0,0-4.392,1.067,3.442,3.442,0,0,0-1.558,3.012,3.28,3.28,0,0,0,1.071,2.594,4.256,4.256,0,0,0,2.93.948,6.285,6.285,0,0,0,2.609-.54,7.9,7.9,0,0,0,2.364-1.728c-.015-.308-.032-.682-.041-1.124s-.013-1.165-.013-2.177Zm9.7,10.673a16.544,16.544,0,0,1-3.111,1.42,8.737,8.737,0,0,1-2.7.472,3.736,3.736,0,0,1-2.515-.771,3.579,3.579,0,0,1-1.107-2.31,14.025,14.025,0,0,1-3.906,2.6,10.866,10.866,0,0,1-4.229.808,9.233,9.233,0,0,1-6.483-2.245,7.576,7.576,0,0,1-2.461-5.888,8.292,8.292,0,0,1,3.406-7q3.4-2.563,9.374-2.567.814,0,1.851.08c.694.054,1.456.133,2.286.242v-1a3.946,3.946,0,0,0-1.528-3.3,6.828,6.828,0,0,0-4.282-1.192,9.91,9.91,0,0,0-4.029.757,7.03,7.03,0,0,0-2.834,2.3,4.446,4.446,0,0,1-1.651-1.326,2.963,2.963,0,0,1-.569-1.784q0-2.458,2.935-3.959a17.429,17.429,0,0,1,7.877-1.5q6.213,0,9.08,2.633t2.86,8.311c0,.09-.013.8-.05,2.15s-.054,2.634-.054,3.879a30.179,30.179,0,0,0,.433,5.687,8.667,8.667,0,0,0,1.405,3.5" fill="#707173"/>
    <path id="Caminho_550" data-name="Caminho 550" d="M2580.73,5190.41a9.459,9.459,0,0,0,2.179.879,8.993,8.993,0,0,0,2.256.283,4.728,4.728,0,0,0,2.526-.6,1.787,1.787,0,0,0,.961-1.565q0-1.218-3.219-3.3c-.469-.3-.836-.55-1.109-.729a13.586,13.586,0,0,1-3.74-3.268,6.031,6.031,0,0,1-.961-3.436,8.6,8.6,0,0,1,3.691-6.944,14.132,14.132,0,0,1,8.985-2.893,5,5,0,0,1,3.054.8,2.7,2.7,0,0,1,1.053,2.283,4.658,4.658,0,0,1-.419,1.877,8.206,8.206,0,0,1-1.257,1.959,8.911,8.911,0,0,0-1.728-.622,7.379,7.379,0,0,0-1.7-.212,5.247,5.247,0,0,0-2.878.7,2.067,2.067,0,0,0-1.092,1.784,2.333,2.333,0,0,0,.563,1.4,10.8,10.8,0,0,0,1.922,1.757c.249.2.631.476,1.132.84q5.214,3.886,5.219,7.023a8.11,8.11,0,0,1-3.448,6.609,13.735,13.735,0,0,1-8.715,2.687,6.067,6.067,0,0,1-3.567-.866,2.967,2.967,0,0,1-1.189-2.565,5.231,5.231,0,0,1,.365-1.836,9.471,9.471,0,0,1,1.119-2.055" fill="#707173"/>
    <path id="Caminho_551" data-name="Caminho 551" d="M2615.1,5184.492c-.522-.1-1.034-.157-1.529-.2s-.976-.069-1.446-.069a7.689,7.689,0,0,0-4.388,1.067,3.439,3.439,0,0,0-1.557,3.012,3.275,3.275,0,0,0,1.068,2.594,4.254,4.254,0,0,0,2.93.948,6.3,6.3,0,0,0,2.609-.54,7.939,7.939,0,0,0,2.366-1.728c-.02-.308-.034-.682-.043-1.124s-.01-1.165-.01-2.177Zm9.7,10.673a16.433,16.433,0,0,1-3.111,1.42,8.734,8.734,0,0,1-2.7.472,3.731,3.731,0,0,1-2.513-.771,3.566,3.566,0,0,1-1.109-2.31,14.046,14.046,0,0,1-3.9,2.6,10.854,10.854,0,0,1-4.232.808,9.26,9.26,0,0,1-6.486-2.245,7.6,7.6,0,0,1-2.46-5.888,8.3,8.3,0,0,1,3.41-7q3.405-2.563,9.374-2.567c.543,0,1.156.027,1.85.08s1.455.133,2.288.242v-1a3.945,3.945,0,0,0-1.529-3.3,6.827,6.827,0,0,0-4.283-1.192,9.909,9.909,0,0,0-4.028.757,7.061,7.061,0,0,0-2.839,2.3,4.455,4.455,0,0,1-1.645-1.326,2.948,2.948,0,0,1-.567-1.784q0-2.458,2.931-3.959a17.426,17.426,0,0,1,7.875-1.5q6.219,0,9.082,2.633t2.864,8.311c0,.09-.015.8-.058,2.15s-.051,2.634-.051,3.879a30.25,30.25,0,0,0,.434,5.687,8.709,8.709,0,0,0,1.406,3.5" fill="#707173"/>
    <path id="Caminho_552" data-name="Caminho 552" d="M2604.217,5208.632a2.812,2.812,0,0,0-.451-.9,2.13,2.13,0,0,0-.716-.6,1.984,1.984,0,0,0-.935-.22,1.961,1.961,0,0,0-1.7.818,3.775,3.775,0,0,0-.579,2.213,2.812,2.812,0,0,0,.644,1.921,2.11,2.11,0,0,0,1.639.7,1.951,1.951,0,0,0,1.657-.8,3.331,3.331,0,0,0,.6-2.051,3.665,3.665,0,0,0-.155-1.077m.155-4.843h.773v9.286h-.773V5211.9h-.027a2.32,2.32,0,0,1-.98.994,2.746,2.746,0,0,1-1.341.359,3.235,3.235,0,0,1-1.36-.262,2.465,2.465,0,0,1-.94-.743,3.111,3.111,0,0,1-.542-1.107,5.219,5.219,0,0,1-.177-1.394,4.9,4.9,0,0,1,.182-1.353,3.326,3.326,0,0,1,.556-1.13,2.546,2.546,0,0,1,.941-.773,2.907,2.907,0,0,1,1.3-.278,3,3,0,0,1,1.374.33,2.453,2.453,0,0,1,1.013.921Z" fill="#707173"/>
    <path id="Caminho_553" data-name="Caminho 553" d="M2611.89,5208.614a2.714,2.714,0,0,0-.4-.89,1.815,1.815,0,0,0-.711-.6,2.314,2.314,0,0,0-1.031-.212,2.156,2.156,0,0,0-1.018.231,2.07,2.07,0,0,0-.717.625,2.779,2.779,0,0,0-.407.9,4.342,4.342,0,0,0-.129,1.071,3.28,3.28,0,0,0,.6,2.05,1.985,1.985,0,0,0,1.675.772,2.137,2.137,0,0,0,1.026-.231,1.985,1.985,0,0,0,.708-.632,2.771,2.771,0,0,0,.407-.9,4.239,4.239,0,0,0,.129-1.058,4.5,4.5,0,0,0-.129-1.122m-4.359,3.707a3.575,3.575,0,0,1-.877-2.585,3.878,3.878,0,0,1,.807-2.528,3.154,3.154,0,0,1,4.589-.008,3.915,3.915,0,0,1,.795,2.536,3.735,3.735,0,0,1-.846,2.552,2.839,2.839,0,0,1-2.25.969,3.041,3.041,0,0,1-2.218-.936" fill="#707173"/>
    <path id="Caminho_554" data-name="Caminho 554" d="M2582.765,5211.76a1.947,1.947,0,0,0,1.656.8,2.107,2.107,0,0,0,1.637-.7,2.8,2.8,0,0,0,.647-1.921,3.761,3.761,0,0,0-.582-2.213,1.959,1.959,0,0,0-1.7-.818,1.983,1.983,0,0,0-.935.22,2.139,2.139,0,0,0-.716.6,2.853,2.853,0,0,0-.451.9,3.665,3.665,0,0,0-.155,1.077,3.313,3.313,0,0,0,.6,2.051m-.6,1.315h-.773v-9.286h.773v3.676a2.442,2.442,0,0,1,1.012-.921,3,3,0,0,1,1.373-.33,2.914,2.914,0,0,1,1.312.278,2.584,2.584,0,0,1,.932.773,3.4,3.4,0,0,1,.556,1.13,4.9,4.9,0,0,1,.182,1.353,5.265,5.265,0,0,1-.176,1.4,3.2,3.2,0,0,1-.534,1.11,2.449,2.449,0,0,1-.943.735,3.274,3.274,0,0,1-1.366.262,2.767,2.767,0,0,1-1.336-.359,2.311,2.311,0,0,1-.986-.994h-.026Z" fill="#707173"/>
    <path id="Caminho_555" data-name="Caminho 555" d="M2593.708,5206.4h.773v6.68h-.773v-.929a4.709,4.709,0,0,1-.923.814,2.272,2.272,0,0,1-1.232.294,2.9,2.9,0,0,1-1.1-.185,1.849,1.849,0,0,1-.735-.516,2.012,2.012,0,0,1-.406-.775,3.44,3.44,0,0,1-.131-.984v-4.4h.775v4.385a1.9,1.9,0,0,0,.413,1.328,1.685,1.685,0,0,0,1.3.45,1.789,1.789,0,0,0,1.489-.7,2.89,2.89,0,0,0,.549-1.827Z" fill="#707173"/>
    <path id="Caminho_556" data-name="Caminho 556" d="M2615.075,5213.075h-.773v-6.68h.773v1.252h.026a2.24,2.24,0,0,1,.812-1.112,2.534,2.534,0,0,1,1.368-.321v.84a2.4,2.4,0,0,0-1.066.211,1.734,1.734,0,0,0-.681.587,2.379,2.379,0,0,0-.353.863,5.222,5.222,0,0,0-.106,1.084Z" fill="#707173"/>
    <path id="Caminho_557" data-name="Caminho 557" d="M2622.929,5209.568a4.038,4.038,0,0,1-.884.252c-.3.047-.668.089-1.114.122a2.7,2.7,0,0,0-1.4.413,1.158,1.158,0,0,0-.482,1.006,1.027,1.027,0,0,0,.425.888,1.675,1.675,0,0,0,1.018.309,3.461,3.461,0,0,0,.909-.115,2.531,2.531,0,0,0,.781-.354,1.7,1.7,0,0,0,.546-.614,1.8,1.8,0,0,0,.2-.863Zm-1.3-.388c.172-.017.356-.045.556-.082a2.221,2.221,0,0,0,.465-.137.413.413,0,0,0,.224-.264,1.491,1.491,0,0,0,.058-.433,1.272,1.272,0,0,0-.4-.993,1.859,1.859,0,0,0-1.265-.36,2.348,2.348,0,0,0-1.354.34,1.588,1.588,0,0,0-.592,1.169h-.786a2.106,2.106,0,0,1,.83-1.665,3.219,3.219,0,0,1,1.916-.541,2.9,2.9,0,0,1,1.767.489,1.851,1.851,0,0,1,.656,1.587v3.639q0,.616.351.616a1.536,1.536,0,0,0,.464-.1v.606c-.105.034-.207.066-.309.092a1.281,1.281,0,0,1-.3.038,1.747,1.747,0,0,1-.349-.038.6.6,0,0,1-.478-.311,1.679,1.679,0,0,1-.139-.684,3.2,3.2,0,0,1-1.123.826,3.343,3.343,0,0,1-1.366.282,2.493,2.493,0,0,1-1.588-.5,1.692,1.692,0,0,1-.644-1.419q0-1.7,2.335-2.01Z" fill="#707173"/>
    <path id="Caminho_558" data-name="Caminho 558" d="M2558.371,5208.632a2.813,2.813,0,0,0-.451-.9,2.122,2.122,0,0,0-.716-.6,1.972,1.972,0,0,0-.934-.22,1.952,1.952,0,0,0-1.7.818,3.752,3.752,0,0,0-.582,2.213,2.8,2.8,0,0,0,.645,1.921,2.111,2.111,0,0,0,1.639.7,1.947,1.947,0,0,0,1.656-.8,3.332,3.332,0,0,0,.6-2.051,3.739,3.739,0,0,0-.157-1.077m.157-4.843h.772v9.286h-.772V5211.9h-.029a2.309,2.309,0,0,1-.98.994,2.738,2.738,0,0,1-1.341.359,3.227,3.227,0,0,1-1.359-.262,2.471,2.471,0,0,1-.941-.743,3.147,3.147,0,0,1-.542-1.107,5.262,5.262,0,0,1-.174-1.394,4.859,4.859,0,0,1,.181-1.353,3.391,3.391,0,0,1,.552-1.13,2.593,2.593,0,0,1,.943-.773,2.917,2.917,0,0,1,1.3-.278,3.01,3.01,0,0,1,1.374.33,2.459,2.459,0,0,1,1.013.921Z" fill="#707173"/>
    <path id="Caminho_559" data-name="Caminho 559" d="M2564.563,5210.985a1.968,1.968,0,0,0,.65,1.215,2.2,2.2,0,0,0,1.348.358,1.861,1.861,0,0,0,1.225-.358,1.118,1.118,0,0,0,.426-.878.939.939,0,0,0-.148-.542,1.026,1.026,0,0,0-.407-.348,3.21,3.21,0,0,0-.568-.219c-.206-.062-.462-.121-.773-.182q-.58-.115-.955-.225a3.217,3.217,0,0,1-.7-.3,1.451,1.451,0,0,1-.53-.536,1.635,1.635,0,0,1-.2-.844,1.716,1.716,0,0,1,.633-1.381,2.6,2.6,0,0,1,1.713-.528,2.853,2.853,0,0,1,1.781.5,2.284,2.284,0,0,1,.8,1.6h-.787a1.505,1.505,0,0,0-.567-1.07,2.083,2.083,0,0,0-1.238-.335,1.759,1.759,0,0,0-1.114.309,1.008,1.008,0,0,0-.394.838.857.857,0,0,0,.149.509,1.041,1.041,0,0,0,.4.343,3.631,3.631,0,0,0,.543.219c.191.06.452.129.781.206.4.1.725.182.966.258a3.355,3.355,0,0,1,.7.329,1.521,1.521,0,0,1,.742,1.385,1.641,1.641,0,0,1-.748,1.44,3.46,3.46,0,0,1-1.973.507,2.513,2.513,0,0,1-1.819-.643,2.339,2.339,0,0,1-.721-1.626Z" fill="#707173"/>
    <path id="Caminho_560" data-name="Caminho 560" d="M2572.907,5213.1a1.044,1.044,0,0,1-.143.04,3.317,3.317,0,0,1-.749.113,1.186,1.186,0,0,1-.889-.3,1.433,1.433,0,0,1-.3-1.027v-4.885h-.94v-.645h.94v-1.857h.774v1.857h1.253v.645H2571.6v4.578a1.729,1.729,0,0,0,.11.748c.074.129.259.192.562.192a2.733,2.733,0,0,0,.633-.088Z" fill="#707173"/>
    <path id="Caminho_561" data-name="Caminho 561" d="M2574.957,5213.075h-.776v-6.68h.776v1.252h.025a2.245,2.245,0,0,1,.81-1.112,2.537,2.537,0,0,1,1.368-.321v.84a2.4,2.4,0,0,0-1.063.211,1.737,1.737,0,0,0-.684.587,2.389,2.389,0,0,0-.354.863,5.216,5.216,0,0,0-.1,1.084Z" fill="#707173"/>
  </g>
</svg>
