<svg id="Componente_13_7" data-name="Componente 13 – 7" xmlns="http://www.w3.org/2000/svg" width="6.541" height="12.647" viewBox="0 0 6.541 12.647">
  <path id="Caminho_754" data-name="Caminho 754" d="M4197.108,5469.533a.424.424,0,0,1-.113.291l-5.237,5.905a.328.328,0,0,1-.517,0l-.562-.634a.436.436,0,0,1,0-.583l4.417-4.979-4.417-4.98a.436.436,0,0,1,0-.583l.562-.634a.327.327,0,0,1,.517,0l5.237,5.905A.425.425,0,0,1,4197.108,5469.533Z" transform="translate(-4190.567 -5463.209)" fill="#3d3d3d"/>
</svg>
